<svg version="1.1" xmlns="http://www.w3.org/2000/svg" viewBox="0 0 10020 616.875" width="10020" height="616.875">
  <!-- svg-source:excalidraw -->
  
  <defs>
    <style>
      @font-face {
        font-family: "Virgil";
        src: url("https://excalidraw.com/Virgil.woff2");
      }
      @font-face {
        font-family: "Cascadia";
        src: url("https://excalidraw.com/Cascadia.woff2");
      }
    </style>
  </defs>
  <rect x="0" y="0" width="10020" height="616.875" fill="#fff0"></rect><g stroke-linecap="round" transform="translate(10 10) rotate(0 5000 0.5)"><path d="M-0.52 -0.26 C3022.65 -30.2, 6044.59 -29.2, 9999.32 0.22 M0.38 -0.31 C3948.03 -0.44, 7895.41 0.2, 9999.95 0.08 M10000.08 -0.06 C10000.09 0.27, 10000.05 0.48, 10000.09 0.92 M9999.97 0.01 C9999.95 0.33, 9999.98 0.72, 10000 0.99 M10000.22 1.51 C7095.77 35.76, 4193.15 34.95, -0.25 0.75 M10000.01 1.13 C7827.97 2.74, 5656.23 3.35, -0.33 0.84 M-0.04 1.01 C0 0.63, -0.06 0.15, 0.05 -0.03 M-0.04 0.95 C-0.04 0.73, -0.03 0.59, -0.05 -0.02" stroke="transparent" stroke-width="1" fill="none"></path></g><g transform="translate(613 526.875) rotate(0 -38 10.5)" stroke="none"><path fill="#000" d="M 0,1.78 Q 0,1.78 -2.29,1.71 -4.59,1.65 -6.62,1.88 -8.64,2.12 -11.05,2.21 -13.46,2.31 -16.13,2.62 -18.79,2.93 -21.36,3.34 -23.93,3.75 -25.84,4.22 -27.76,4.69 -29.74,5.18 -31.72,5.67 -33.50,5.96 -35.28,6.25 -36.92,6.41 -38.55,6.57 -39.61,6.95 -40.68,7.34 -42.21,7.56 -43.74,7.79 -45.38,8.11 -47.03,8.43 -48.43,8.65 -49.82,8.87 -50.99,8.99 -52.16,9.12 -53.73,9.68 -55.30,10.24 -56.36,10.35 -57.43,10.46 -58.75,10.50 -60.07,10.54 -61.84,10.63 -63.61,10.72 -65.16,10.79 -66.71,10.85 -68.63,10.89 -70.55,10.92 -72.25,10.96 -73.95,10.99 -74.54,11.02 -75.13,11.04 -75.49,11.00 -75.85,10.95 -76.20,10.82 -76.54,10.69 -76.84,10.48 -77.15,10.28 -77.39,10.00 -77.63,9.73 -77.80,9.40 -77.97,9.08 -78.06,8.72 -78.15,8.36 -78.15,7.99 -78.15,7.63 -78.06,7.27 -77.97,6.91 -77.80,6.59 -77.63,6.26 -77.39,5.99 -77.15,5.71 -76.84,5.51 -76.54,5.30 -76.20,5.17 -75.85,5.04 -75.49,4.99 -75.12,4.95 -73.00,4.97 -70.88,4.99 -69.05,4.21 -67.22,3.43 -66.56,4.84 -65.91,6.25 -66.73,6.93 -67.56,7.61 -69.40,8.36 -71.24,9.11 -72.52,9.71 -73.81,10.32 -71.77,10.71 -69.72,11.11 -68.00,11.84 -66.28,12.57 -64.56,13.23 -62.84,13.88 -61.17,14.16 -59.50,14.43 -57.96,14.83 -56.41,15.23 -54.48,15.78 -52.54,16.33 -49.00,17.57 -45.45,18.81 -45.18,19.03 -44.91,19.26 -44.73,19.55 -44.54,19.85 -44.46,20.19 -44.38,20.53 -44.41,20.88 -44.44,21.22 -44.58,21.54 -44.72,21.86 -44.96,22.12 -45.19,22.38 -45.50,22.55 -45.80,22.72 -46.15,22.78 -46.49,22.85 -46.84,22.80 -47.18,22.75 -47.49,22.59 -47.81,22.43 -48.05,22.18 -48.30,21.93 -48.45,21.62 -48.60,21.30 -48.65,20.96 -48.69,20.61 -48.62,20.27 -48.55,19.93 -48.38,19.62 -48.21,19.32 -47.94,19.09 -47.68,18.86 -47.36,18.72 -47.04,18.59 -46.69,18.56 -46.34,18.53 -46.00,18.62 -45.66,18.71 -45.37,18.90 -45.08,19.09 -44.86,19.36 -44.64,19.64 -44.52,19.97 -44.41,20.30 -44.40,20.65 -44.39,20.99 -44.50,21.33 -44.60,21.66 -44.81,21.94 -45.02,22.23 -45.30,22.43 -45.59,22.63 -45.92,22.73 -46.26,22.83 -46.61,22.82 -46.96,22.81 -47.28,22.68 -47.61,22.56 -47.61,22.56 -47.61,22.56 -50.52,21.44 -53.43,20.32 -55.54,19.96 -57.65,19.60 -58.87,19.22 -60.08,18.84 -62.20,18.63 -64.31,18.42 -66.08,17.92 -67.85,17.43 -70.29,16.82 -72.73,16.20 -74.57,15.21 -76.41,14.22 -77.61,12.64 -78.81,11.06 -78.71,9.07 -78.61,7.07 -77.69,6.20 -76.77,5.33 -75.24,4.43 -73.71,3.53 -72.60,3.03 -71.50,2.52 -70.24,2.05 -68.98,1.57 -66.37,1.33 -63.77,1.08 -62.43,2.70 -61.09,4.31 -62.20,6.31 -63.30,8.31 -65.24,8.91 -67.17,9.51 -68.86,10.26 -70.54,11.00 -72.83,11.02 -75.12,11.04 -75.49,11.00 -75.85,10.95 -76.20,10.82 -76.54,10.69 -76.84,10.48 -77.15,10.28 -77.39,10.00 -77.63,9.73 -77.80,9.40 -77.97,9.08 -78.06,8.72 -78.15,8.36 -78.15,8.00 -78.15,7.63 -78.06,7.27 -77.97,6.91 -77.80,6.59 -77.63,6.26 -77.39,5.99 -77.15,5.71 -76.84,5.51 -76.54,5.30 -76.20,5.17 -75.85,5.04 -75.49,4.99 -75.13,4.95 -74.54,4.97 -73.95,5.00 -72.25,5.03 -70.55,5.07 -68.64,5.10 -66.72,5.13 -65.18,5.19 -63.64,5.25 -61.90,5.32 -60.17,5.38 -58.95,5.37 -57.73,5.36 -56.23,5.35 -54.73,5.34 -53.61,5.01 -52.48,4.69 -51.38,4.69 -50.28,4.69 -49.04,4.61 -47.81,4.54 -45.97,4.17 -44.13,3.80 -42.88,3.74 -41.62,3.69 -40.18,3.42 -38.75,3.16 -37.21,3.14 -35.66,3.13 -34.03,3.00 -32.40,2.88 -30.41,2.39 -28.42,1.91 -26.41,1.44 -24.39,0.97 -21.77,0.51 -19.15,0.06 -16.38,-0.30 -13.61,-0.67 -11.34,-0.82 -9.06,-0.97 -6.83,-1.31 -4.60,-1.65 -2.30,-1.71 0,-1.78 0.21,-1.75 0.42,-1.72 0.62,-1.65 0.82,-1.57 1.00,-1.45 1.18,-1.33 1.32,-1.17 1.46,-1.01 1.56,-0.82 1.66,-0.63 1.71,-0.42 1.76,-0.21 1.76,0.00 1.76,0.21 1.71,0.42 1.66,0.63 1.56,0.82 1.46,1.01 1.32,1.17 1.18,1.33 1.00,1.45 0.82,1.57 0.62,1.65 0.42,1.72 0.21,1.75 -0.00,1.78 -0.00,1.78 L 0,1.78 Z"></path></g><g transform="translate(581 587.875) rotate(0 -25 -13)" stroke="none"><path fill="#000" d="M -0.33,2.00 Q -0.33,2.00 -2.06,1.71 -3.79,1.41 -5.62,0.64 -7.44,-0.12 -9.16,-0.71 -10.89,-1.30 -12.96,-2.56 -15.03,-3.83 -17.02,-5.24 -19.00,-6.66 -20.62,-7.46 -22.23,-8.25 -23.67,-9.21 -25.11,-10.17 -26.42,-10.73 -27.73,-11.29 -28.75,-11.85 -29.77,-12.41 -31.59,-12.84 -33.41,-13.27 -34.65,-13.68 -35.89,-14.09 -37.73,-14.58 -39.57,-15.07 -40.61,-15.51 -41.65,-15.95 -43.32,-16.04 -44.98,-16.12 -46.13,-16.52 -47.28,-16.92 -47.38,-18.51 -47.49,-20.10 -47.01,-18.42 -46.53,-16.75 -46.75,-16.44 -46.97,-16.14 -47.25,-15.89 -47.54,-15.64 -47.88,-15.47 -48.21,-15.30 -48.58,-15.21 -48.95,-15.13 -49.33,-15.13 -49.70,-15.14 -50.07,-15.24 -50.44,-15.33 -50.77,-15.51 -51.10,-15.69 -51.38,-15.95 -51.66,-16.20 -51.87,-16.51 -52.08,-16.83 -52.21,-17.18 -52.34,-17.54 -52.38,-17.91 -52.42,-18.29 -52.37,-18.66 -52.32,-19.04 -52.18,-19.39 -52.04,-19.74 -51.44,-20.64 -50.84,-21.53 -49.12,-22.54 -47.41,-23.54 -46.44,-24.26 -45.48,-24.99 -44.29,-25.73 -43.11,-26.47 -41.91,-27.24 -40.72,-28.00 -40.41,-28.19 -40.10,-28.37 -39.75,-28.48 -39.41,-28.58 -39.05,-28.61 -38.69,-28.63 -38.33,-28.56 -37.98,-28.49 -37.65,-28.34 -37.32,-28.19 -37.04,-27.97 -36.75,-27.74 -36.53,-27.46 -36.31,-27.17 -36.16,-26.84 -36.02,-26.51 -35.95,-26.16 -35.89,-25.80 -35.91,-25.44 -35.94,-25.08 -36.05,-24.74 -36.16,-24.40 -36.34,-24.09 -36.53,-23.78 -36.79,-23.52 -37.05,-23.27 -38.01,-22.44 -38.97,-21.60 -40.55,-20.38 -42.13,-19.17 -43.51,-17.95 -44.89,-16.72 -45.27,-15.61 -45.66,-14.50 -44.58,-13.92 -43.50,-13.33 -43.04,-13.07 -42.57,-12.80 -42.22,-12.41 -41.86,-12.01 -41.65,-11.52 -41.44,-11.03 -41.40,-10.49 -41.35,-9.96 -41.48,-9.44 -41.61,-8.93 -41.90,-8.48 -42.19,-8.03 -42.61,-7.69 -43.02,-7.36 -43.53,-7.17 -44.03,-6.99 -44.56,-6.98 -45.10,-6.96 -45.61,-7.12 -46.12,-7.28 -46.55,-7.59 -46.98,-7.90 -47.29,-8.34 -47.61,-8.77 -47.76,-9.28 -47.92,-9.80 -47.90,-10.33 -47.89,-10.86 -47.70,-11.36 -47.52,-11.87 -47.18,-12.28 -46.84,-12.70 -46.39,-12.98 -45.94,-13.27 -45.43,-13.40 -44.91,-13.53 -44.37,-13.48 -43.84,-13.44 -43.35,-13.23 -42.86,-13.01 -42.46,-12.66 -42.07,-12.30 -41.81,-11.83 -41.54,-11.37 -41.44,-10.84 -41.34,-10.32 -41.42,-9.79 -41.49,-9.26 -41.73,-8.78 -41.97,-8.30 -42.35,-7.93 -42.72,-7.55 -43.20,-7.31 -43.68,-7.08 -44.21,-7.01 -44.74,-6.93 -45.27,-7.04 -45.79,-7.14 -45.79,-7.14 -45.79,-7.14 -47.48,-7.80 -49.16,-8.45 -50.11,-9.25 -51.06,-10.04 -51.58,-11.40 -52.11,-12.76 -51.96,-14.30 -51.81,-15.85 -51.06,-17.55 -50.30,-19.25 -48.95,-20.86 -47.60,-22.47 -46.51,-23.41 -45.42,-24.36 -44.18,-25.27 -42.94,-26.19 -41.83,-27.10 -40.72,-28.00 -40.41,-28.19 -40.10,-28.37 -39.75,-28.48 -39.41,-28.58 -39.05,-28.61 -38.69,-28.63 -38.33,-28.56 -37.98,-28.49 -37.65,-28.34 -37.32,-28.19 -37.04,-27.97 -36.75,-27.74 -36.53,-27.46 -36.31,-27.17 -36.17,-26.84 -36.02,-26.51 -35.95,-26.16 -35.89,-25.80 -35.91,-25.44 -35.94,-25.08 -36.05,-24.74 -36.16,-24.40 -36.34,-24.09 -36.53,-23.78 -36.79,-23.53 -37.05,-23.27 -38.52,-22.41 -39.99,-21.55 -40.91,-20.97 -41.83,-20.38 -43.11,-19.33 -44.39,-18.28 -45.46,-17.51 -46.53,-16.75 -46.75,-16.44 -46.97,-16.14 -47.25,-15.89 -47.54,-15.64 -47.88,-15.47 -48.21,-15.30 -48.58,-15.21 -48.95,-15.13 -49.33,-15.13 -49.70,-15.14 -50.07,-15.24 -50.44,-15.33 -50.77,-15.51 -51.10,-15.69 -51.38,-15.95 -51.66,-16.20 -51.87,-16.51 -52.08,-16.83 -52.21,-17.18 -52.34,-17.54 -52.38,-17.91 -52.42,-18.29 -52.37,-18.66 -52.32,-19.04 -52.18,-19.39 -52.04,-19.74 -51.95,-18.41 -51.86,-17.07 -51.36,-19.48 -50.87,-21.89 -48.69,-22.29 -46.51,-22.69 -45.54,-22.23 -44.57,-21.76 -42.92,-21.55 -41.26,-21.33 -39.47,-20.58 -37.68,-19.83 -36.00,-19.19 -34.31,-18.55 -32.18,-17.65 -30.04,-16.76 -28.06,-15.71 -26.08,-14.67 -24.56,-13.86 -23.04,-13.05 -21.89,-12.13 -20.74,-11.21 -18.95,-10.30 -17.16,-9.38 -15.22,-8.13 -13.27,-6.88 -11.48,-5.92 -9.70,-4.97 -7.76,-4.39 -5.83,-3.81 -4.47,-3.18 -3.10,-2.56 -1.38,-2.28 0.33,-2.00 0.57,-1.93 0.80,-1.86 1.01,-1.74 1.22,-1.62 1.40,-1.45 1.58,-1.28 1.71,-1.07 1.84,-0.86 1.91,-0.63 1.99,-0.39 2.01,-0.15 2.03,0.09 1.99,0.33 1.95,0.57 1.85,0.79 1.75,1.02 1.61,1.22 1.46,1.41 1.27,1.57 1.08,1.72 0.85,1.82 0.63,1.93 0.39,1.98 0.15,2.02 -0.08,2.01 -0.33,2.00 -0.33,2.00 L -0.33,2.00 Z"></path></g><g transform="translate(592 581.875) rotate(0 28 12.5)"><text x="0" y="18" font-family="Virgil, Segoe UI Emoji" font-size="20px" fill="#000" text-anchor="start" style="white-space: pre;" direction="ltr">denom</text></g><g transform="translate(625 517.375) rotate(0 49 12.5)"><text x="0" y="18" font-family="Virgil, Segoe UI Emoji" font-size="20px" fill="#000" text-anchor="start" style="white-space: pre;" direction="ltr">numerator</text></g></svg>